# Blender v2.78 (sub 0) OBJ File: 'goal_crystal.blend'
# www.blender.org
o Cube
v 0.087500 0.087500 0.087500
v -0.087500 0.087500 0.087500
v 0.087500 -0.087500 0.087500
v 0.087500 -0.087500 -0.087500
v 0.087500 0.087500 -0.087500
v 0.060000 -0.060000 -0.100000
v 0.060000 -0.060000 0.100000
v -0.060000 -0.060000 0.100000
v -0.100000 -0.060000 -0.060000
v 0.060000 0.100000 -0.060000
v 0.060000 0.100000 0.060000
v -0.060000 0.100000 0.060000
v -0.060000 0.100000 -0.060000
v 0.060000 0.060000 -0.100000
v 0.060000 0.060000 0.100000
v -0.100000 0.060000 -0.060000
v -0.060000 0.060000 0.100000
v 0.100000 -0.060000 0.060000
v -0.100000 -0.060000 0.060000
v 0.100000 0.060000 0.060000
v -0.100000 0.060000 0.060000
v -0.060000 -0.100000 0.060000
v -0.060000 -0.060000 -0.100000
v -0.060000 0.060000 -0.100000
v 0.100000 -0.060000 -0.060000
v -0.060000 -0.100000 -0.060000
v 0.100000 0.060000 -0.060000
v 0.060000 -0.100000 -0.060000
v 0.060000 -0.100000 0.060000
v -0.026603 -0.146603 0.186603
v -0.146603 -0.146603 0.186603
v -0.026603 -0.026603 0.186603
v -0.146603 -0.026603 0.186603
v -0.186603 -0.146603 0.146602
v -0.186603 -0.146603 0.026602
v -0.186603 -0.026603 0.146602
v -0.186603 -0.026603 0.026603
v -0.026603 -0.186603 0.026603
v -0.026603 -0.186603 0.146603
v -0.146603 -0.186603 0.026602
v -0.146603 -0.186603 0.146603
v 0.146603 0.186603 -0.146602
v 0.146603 0.186603 -0.026602
v 0.026603 0.186603 -0.146602
v 0.026603 0.186603 -0.026603
v 0.146603 0.026603 -0.186603
v 0.026603 0.026603 -0.186603
v 0.146603 0.146603 -0.186602
v 0.026603 0.146603 -0.186603
v 0.186603 0.026603 -0.146602
v 0.186603 0.026603 -0.026602
v 0.186603 0.146603 -0.146602
v 0.186603 0.146603 -0.026602
v 0.100000 0.100000 -0.087500
v 0.087500 0.100000 -0.087500
v 0.100000 0.087500 -0.087500
v 0.087500 0.087500 -0.100000
v 0.100000 0.087500 -0.100000
v 0.087500 0.100000 -0.100000
v 0.100000 -0.087500 -0.100000
v 0.087500 -0.087500 -0.100000
v 0.087500 -0.100000 -0.087500
v 0.100000 -0.100000 -0.087500
v 0.100000 -0.087500 -0.087500
v 0.087500 -0.100000 -0.100000
v 0.100000 -0.087500 0.087500
v 0.100000 -0.087500 0.100000
v 0.087500 -0.087500 0.100000
v 0.087500 -0.100000 0.100000
v 0.087500 -0.100000 0.087500
v 0.100000 -0.100000 0.087500
v -0.100000 0.087500 0.100000
v -0.087500 0.087500 0.100000
v -0.100000 0.087500 0.087500
v -0.087500 0.100000 0.100000
v -0.087500 0.100000 0.087500
v -0.100000 0.100000 0.087500
v -0.100000 0.087500 -0.087500
v -0.100000 0.100000 -0.087500
v -0.087500 0.100000 -0.087500
v -0.100000 0.087500 -0.100000
v -0.087500 0.087500 -0.100000
v -0.087500 0.100000 -0.100000
v -0.087500 0.087500 -0.087500
v -0.100000 -0.087500 0.087500
v -0.100000 -0.087500 0.100000
v -0.087500 -0.087500 0.100000
v -0.087500 -0.100000 0.100000
v -0.087500 -0.100000 0.087500
v -0.100000 -0.100000 0.087500
v -0.087500 -0.087500 0.087500
v -0.100000 -0.087500 -0.100000
v -0.100000 -0.100000 -0.087500
v -0.087500 -0.100000 -0.087500
v -0.100000 -0.087500 -0.087500
v -0.087500 -0.087500 -0.100000
v -0.087500 -0.100000 -0.100000
v -0.087500 -0.087500 -0.087500
v 0.100000 0.087500 0.100000
v 0.087500 0.087500 0.100000
v 0.100000 0.087500 0.087500
v 0.087500 0.100000 0.100000
v 0.087500 0.100000 0.087500
v 0.100000 0.100000 0.087500
vn 0.0000 0.0000 1.0000
vn 0.0000 1.0000 0.0000
vn -1.0000 0.0000 0.0000
vn 1.0000 0.0000 0.0000
vn -0.7071 -0.0000 -0.7071
vn -0.0000 0.7071 0.7071
vn -0.7071 0.7071 -0.0000
vn 0.7071 -0.7071 0.0000
vn 0.0000 -0.0000 -1.0000
vn 0.0000 -1.0000 0.0000
vn 0.7071 0.0000 0.7071
vn 0.0000 -0.7071 -0.7071
s off
f 101//1 103//1 1//1
f 1//2 99//2 101//2
f 73//3 76//3 2//3
f 57//4 55//4 5//4
f 8//5 33//5 17//5
f 14//6 49//6 24//6
f 13//7 45//7 44//7
f 29//8 38//8 28//8
f 19//8 35//8 9//8
f 27//5 50//5 25//5
f 11//2 54//2 10//2
f 10//2 83//2 13//2
f 12//2 102//2 11//2
f 13//2 77//2 12//2
f 8//1 69//1 7//1
f 7//1 99//1 15//1
f 17//1 86//1 8//1
f 15//1 75//1 17//1
f 9//3 90//3 19//3
f 19//3 72//3 21//3
f 16//3 92//3 9//3
f 21//3 79//3 16//3
f 6//9 97//9 23//9
f 14//9 60//9 6//9
f 23//9 81//9 24//9
f 24//9 59//9 14//9
f 18//4 63//4 25//4
f 25//4 58//4 27//4
f 20//4 67//4 18//4
f 27//4 104//4 20//4
f 28//10 71//10 29//10
f 26//10 65//10 28//10
f 29//10 88//10 22//10
f 22//10 93//10 26//10
f 39//10 40//10 38//10
f 32//1 31//1 30//1
f 36//3 35//3 34//3
f 19//11 36//11 34//11
f 26//12 38//12 40//12
f 17//6 32//6 15//6
f 9//5 37//5 16//5
f 22//6 39//6 29//6
f 8//12 30//12 31//12
f 21//7 37//7 36//7
f 22//7 40//7 41//7
f 7//11 32//11 30//11
f 44//2 43//2 42//2
f 50//4 53//4 51//4
f 46//9 49//9 48//9
f 20//11 51//11 53//11
f 10//8 43//8 11//8
f 6//12 47//12 46//12
f 27//7 53//7 52//7
f 10//12 44//12 42//12
f 14//11 46//11 48//11
f 25//8 51//8 18//8
f 11//6 45//6 12//6
f 24//5 47//5 23//5
f 5//9 54//9 56//9
f 5//2 58//2 57//2
f 4//10 60//10 64//10
f 62//9 64//9 63//9
f 61//4 62//4 65//4
f 3//1 71//1 66//1
f 3//10 67//10 68//10
f 3//4 69//4 70//4
f 2//1 77//1 74//1
f 2//2 72//2 73//2
f 84//3 83//3 82//3
f 79//9 84//9 78//9
f 84//2 81//2 78//2
f 86//10 91//10 87//10
f 87//3 89//3 88//3
f 89//1 85//1 90//1
f 96//10 95//10 92//10
f 95//9 94//9 93//9
f 98//3 97//3 94//3
f 1//4 102//4 100//4
f 101//1 104//1 103//1
f 1//2 100//2 99//2
f 73//3 75//3 76//3
f 57//4 59//4 55//4
f 8//5 31//5 33//5
f 14//6 48//6 49//6
f 13//7 12//7 45//7
f 29//8 39//8 38//8
f 19//8 34//8 35//8
f 27//5 52//5 50//5
f 55//2 10//2 54//2
f 11//2 103//2 104//2
f 104//2 54//2 11//2
f 80//2 13//2 83//2
f 10//2 55//2 59//2
f 59//2 83//2 10//2
f 103//2 11//2 102//2
f 12//2 76//2 75//2
f 75//2 102//2 12//2
f 76//2 12//2 77//2
f 13//2 80//2 79//2
f 79//2 77//2 13//2
f 68//1 7//1 69//1
f 8//1 87//1 88//1
f 88//1 69//1 8//1
f 100//1 15//1 99//1
f 7//1 68//1 67//1
f 67//1 99//1 7//1
f 87//1 8//1 86//1
f 17//1 73//1 72//1
f 72//1 86//1 17//1
f 73//1 17//1 75//1
f 15//1 100//1 102//1
f 102//1 75//1 15//1
f 85//3 19//3 90//3
f 9//3 95//3 93//3
f 93//3 90//3 9//3
f 74//3 21//3 72//3
f 19//3 85//3 86//3
f 86//3 72//3 19//3
f 95//3 9//3 92//3
f 16//3 78//3 81//3
f 81//3 92//3 16//3
f 78//3 16//3 79//3
f 21//3 74//3 77//3
f 77//3 79//3 21//3
f 96//9 23//9 97//9
f 6//9 61//9 65//9
f 65//9 97//9 6//9
f 61//9 6//9 60//9
f 14//9 57//9 58//9
f 58//9 60//9 14//9
f 82//9 24//9 81//9
f 23//9 96//9 92//9
f 92//9 81//9 23//9
f 57//9 14//9 59//9
f 24//9 82//9 83//9
f 83//9 59//9 24//9
f 64//4 25//4 63//4
f 18//4 66//4 71//4
f 71//4 63//4 18//4
f 56//4 27//4 58//4
f 25//4 64//4 60//4
f 60//4 58//4 25//4
f 66//4 18//4 67//4
f 20//4 101//4 99//4
f 99//4 67//4 20//4
f 101//4 20//4 104//4
f 27//4 56//4 54//4
f 54//4 104//4 27//4
f 70//10 29//10 71//10
f 28//10 62//10 63//10
f 63//10 71//10 28//10
f 62//10 28//10 65//10
f 26//10 94//10 97//10
f 97//10 65//10 26//10
f 89//10 22//10 88//10
f 29//10 70//10 69//10
f 69//10 88//10 29//10
f 94//10 26//10 93//10
f 22//10 89//10 90//10
f 90//10 93//10 22//10
f 39//10 41//10 40//10
f 32//1 33//1 31//1
f 36//3 37//3 35//3
f 19//11 21//11 36//11
f 26//12 28//12 38//12
f 17//6 33//6 32//6
f 9//5 35//5 37//5
f 22//6 41//6 39//6
f 8//12 7//12 30//12
f 21//7 16//7 37//7
f 22//7 26//7 40//7
f 7//11 15//11 32//11
f 44//2 45//2 43//2
f 50//4 52//4 53//4
f 46//9 47//9 49//9
f 20//11 18//11 51//11
f 10//8 42//8 43//8
f 6//12 23//12 47//12
f 27//7 20//7 53//7
f 10//12 13//12 44//12
f 14//11 6//11 46//11
f 25//8 50//8 51//8
f 11//6 43//6 45//6
f 24//5 49//5 47//5
f 5//9 55//9 54//9
f 5//2 56//2 58//2
f 4//10 61//10 60//10
f 62//9 4//9 64//9
f 61//4 4//4 62//4
f 3//1 70//1 71//1
f 3//10 66//10 67//10
f 3//4 68//4 69//4
f 2//1 76//1 77//1
f 2//2 74//2 72//2
f 84//3 80//3 83//3
f 79//9 80//9 84//9
f 84//2 82//2 81//2
f 86//10 85//10 91//10
f 87//3 91//3 89//3
f 89//1 91//1 85//1
f 96//10 98//10 95//10
f 95//9 98//9 94//9
f 98//3 96//3 97//3
f 1//4 103//4 102//4
